<svg width="24" height="24" viewBox="0 0 24 24" fill="none" xmlns="http://www.w3.org/2000/svg">
  <path d="M12 2C8 2 4 3.5 4 6V18C4 20.5 8 22 12 22C16 22 20 20.5 20 18V6C20 3.5 16 2 12 2Z" stroke="currentColor" stroke-width="1.5" stroke-linecap="round" stroke-linejoin="round"/>
  <path d="M4 6C4 8.5 8 10 12 10C16 10 20 8.5 20 6" stroke="currentColor" stroke-width="1.5" stroke-linecap="round" stroke-linejoin="round"/>
  <path d="M4 12C4 14.5 8 16 12 16C16 16 20 14.5 20 12" stroke="currentColor" stroke-width="1.5" stroke-linecap="round" stroke-linejoin="round"/>
  <circle cx="12" cy="6" r="1.5" fill="currentColor"/>
  <circle cx="12" cy="12" r="1.5" fill="currentColor"/>
  <circle cx="12" cy="18" r="1.5" fill="currentColor"/>
</svg>
